<svg xmlns="http://www.w3.org/2000/svg" width="219.845" height="116.771" viewBox="0 0 219.845 116.771">
  <g id="logo" transform="translate(-547.255 -357.201)">
    <path id="Path_1231" data-name="Path 1231" d="M514.7,439.15S509.1,402.789,545.466,397.2c0,0,13.985-2.8,22.376,5.594,0,0,5.594-41.955,44.752-44.752,0,0,44.752-8.391,64.331,27.97,0,0,41.955-13.985,55.94,30.767,0,0,16.782,67.128-67.128,55.94,0,0,41.955-27.97,2.8-64.331,0,0,8.391-2.8,16.782,0,0,0-16.782-19.579-55.94,2.8,0,0,8.391-16.782,27.97-16.782,0,0-11.188-22.376-36.361-22.376,0,0-33.564-2.8-41.955,22.376,0,0,19.579-19.579,41.955-11.188,0,0-53.143,2.8-47.549,47.549,0,0-5.594-5.594-5.594-22.376C567.842,408.383,523.09,394.4,514.7,439.15Z" transform="translate(32.866 0)"/>
  </g>
</svg>
