<svg xmlns="http://www.w3.org/2000/svg" width="351.001" height="163.163" viewBox="0 0 351.001 163.163">
  <g id="Group_29" data-name="Group 29" transform="translate(-65.752 -44)">
    <g id="Path_3" data-name="Path 3" transform="translate(65.752 44)" fill="#f4f4f4">
      <path d="M 331.2809143066406 161.6634368896484 L 52.19663619995117 161.6634368896484 L 19.71909141540527 161.6634368896484 C 14.85863590240479 161.6634368896484 10.28740882873535 159.7282104492188 6.847499847412109 156.2142181396484 C 3.399091005325317 152.6915740966797 1.5 148.0057067871094 1.5 143.0198059082031 L 1.5 20.14361953735352 C 1.5 15.15771102905273 3.399091005325317 10.47184753417969 6.847499847412109 6.949210643768311 C 10.28740882873535 3.435210704803467 14.85863590240479 1.499983549118042 19.71909141540527 1.499983549118042 L 331.2809143066406 1.499983549118042 C 336.141357421875 1.499983549118042 340.7125854492188 3.435210704803467 344.1524963378906 6.949210643768311 C 347.6009216308594 10.47184753417969 349.5 15.15771102905273 349.5 20.14361953735352 L 349.5 143.0198059082031 C 349.5 148.0057067871094 347.6009216308594 152.6915740966797 344.1524963378906 156.2142181396484 C 340.7125854492188 159.7282104492188 336.141357421875 161.6634368896484 331.2809143066406 161.6634368896484 Z" stroke="none"/>
      <path d="M 19.71908569335938 2.999984741210938 C 15.26535034179688 2.999984741210938 11.0748291015625 4.775161743164063 7.91937255859375 7.99853515625 C 4.747100830078125 11.23916625976563 3 15.55235290527344 3 20.14361572265625 L 3 143.0198059082031 C 3 147.6110687255859 4.747100830078125 151.9242553710938 7.91937255859375 155.1648864746094 C 11.0748291015625 158.3882598876953 15.26535034179688 160.1634368896484 19.71908569335938 160.1634368896484 L 52.19662475585938 160.1634368896484 L 331.2808532714844 160.1634368896484 C 335.7346496582031 160.1634368896484 339.9251708984375 158.3882598876953 343.0805969238281 155.1648864746094 C 346.2528991699219 151.9242553710938 348 147.6110687255859 348 143.0198059082031 L 348 20.14361572265625 C 348 15.55235290527344 346.2528991699219 11.23916625976563 343.0805969238281 7.99853515625 C 339.9251708984375 4.775161743164063 335.7346496582031 2.999984741210938 331.2808532714844 2.999984741210938 L 19.71908569335938 2.999984741210938 M 19.71908569335938 -1.52587890625e-05 L 331.2808532714844 -1.52587890625e-05 C 342.1714477539063 -1.52587890625e-05 351 9.01861572265625 351 20.14361572265625 L 351 143.0198059082031 C 351 154.1448059082031 342.1714477539063 163.1634368896484 331.2808532714844 163.1634368896484 L 52.19662475585938 163.1634368896484 L 19.71908569335938 163.1634368896484 C 8.82855224609375 163.1634368896484 0 154.1448059082031 0 143.0198059082031 L 0 20.14361572265625 C 0 9.01861572265625 8.82855224609375 -1.52587890625e-05 19.71908569335938 -1.52587890625e-05 Z" stroke="none" fill="#232323"/>
    </g>
    <text id="_PSDS_" data-name="&lt;PSDS&gt;" transform="translate(94.503 151.216)" fill="#232323" font-size="78" font-family="OCRAExtended, OCR A"><tspan x="0" y="0">&lt;PSDS&gt;</tspan></text>
  </g>
</svg>
